<svg xmlns="http://www.w3.org/2000/svg" width="13" height="13" fill="none" viewBox="0 0 13 13">
  <path fill="#9E9E9E" stroke="#9D996C" d="M11.1224 7.50368l-.2971.04496-.0997.28345c-.1014.28814-.2014.51922-.2983.69839l-.1468.27157.1771.25291c.1935.27641.4757.6418.8424 1.09264-.1418.1744-.3734.4233-.7077.7529-.1969.1941-.3468.3268-.4539.4077-.0006.0005-.0013.001-.0019.0015l-1.06858-.8363-.25397-.1987-.28581.1494c-.2229.1165-.45301.2126-.69058.2884l-.30691.0979-.03764.32c-.07602.6462-.14364 1.0969-.20098 1.3696H5.72417l-.21098-1.3864-.04633-.3045-.29278-.0956c-.25437-.0831-.48363-.1777-.68898-.2829l-.27978-.1433-.25041.1901-1.08282.8217c-.56797-.5184-.9416-.8977-1.14465-1.1481.08061-.108.19619-.25743.34891-.45046.2045-.25846.36242-.46439.4707-.61477l.18299-.25416-.14881-.27557c-.1371-.25387-.23821-.49969-.3062-.73766l-.08862-.31021-.31916-.04709L.5 7.25936V5.7037l1.37716-.20732.31204-.04697.09187-.30188c.06834-.22454.1647-.45298.29105-.68546l.14799-.2723-.17802-.25368c-.21701-.30924-.49727-.67263-.83843-1.08874.13808-.16957.36678-.41516.69984-.74363.19698-.19427.34737-.32765.45514-.40945l1.07522.83368.2536.19664.2844-.14866c.2229-.11652.45301-.21258.69058-.2884l.30691-.09795.03764-.31996C5.58301 1.22345 5.65063.772692 5.70797.5h1.56786l.21098 1.38642.04633.30448.29278.0956c.25438.08306.48363.17769.68898.28287l.27873.14277.25011-.18847 1.09156-.82249c.5728.53299.9423.91271 1.1346 1.15137-.0804.10771-.1952.25596-.3463.44691-.2045.25846-.3624.46439-.4706.61477l-.1799.24977.142.27305c.1347.25906.2385.50831.3134.7479l.0931.2979.3085.04721 1.3699.2096v1.55552l-1.3776.2085zm-1.0903 3.87462c.0001-.0002.0019-.0011.0056-.0026-.0038.002-.0056.0027-.0056.0026zM2.96844 1.62159c-.00004.00012-.00197.0011-.00565.00257.00386-.00196.0057-.00269.00565-.00257zM5.74093.358254c0-.000025 0-.00002-.00001.000016l.00001-.000016zM9.16667 6.5c0-.73079-.26434-1.36858-.78121-1.88545-.51688-.51688-1.15467-.78122-1.88546-.78122-.73079 0-1.36858.26434-1.88545.78122-.51688.51687-.78122 1.15466-.78122 1.88545s.26434 1.36858.78122 1.88546c.51687.51687 1.15466.78121 1.88545.78121.7308 0 1.36858-.26434 1.88545-.78121.51688-.51688.78122-1.15466.78122-1.88546z"/>
</svg>