<svg width="13" height="13" viewBox="0 0 13 13" fill="none" xmlns="http://www.w3.org/2000/svg">
<path d="M12.329 8.10717L12.3286 8.10753L8.12075 12.3239C7.98844 12.4478 7.85133 12.5 7.68845 12.5C7.51595 12.5 7.38627 12.4455 7.26973 12.329L1.13466 6.18531L1.13469 6.18527L1.12967 6.18038C0.973392 6.02821 0.822552 5.80234 0.689356 5.48066C0.555536 5.15748 0.5 4.88875 0.5 4.66799V1.09835C0.5 0.938365 0.552507 0.806745 0.679626 0.679626C0.806745 0.552507 0.938365 0.5 1.09835 0.5H4.66799C4.88875 0.5 5.15748 0.555536 5.48066 0.689356C5.80287 0.82277 6.03402 0.974786 6.19364 1.13441L6.19389 1.13466L12.3239 7.25609C12.4478 7.38842 12.5 7.52554 12.5 7.68845C12.5 7.86095 12.4455 7.99063 12.329 8.10717ZM1.61575 1.61575L1.96931 1.96931L1.61575 1.61575C1.30753 1.92398 1.14752 2.30999 1.14752 2.74587C1.14752 3.18176 1.30753 3.56777 1.61575 3.876C1.92398 4.18422 2.30999 4.34422 2.74587 4.34422C3.18176 4.34422 3.56777 4.18422 3.876 3.876C4.18422 3.56777 4.34422 3.18176 4.34422 2.74587C4.34422 2.30999 4.18422 1.92398 3.876 1.61575C3.56777 1.30753 3.18176 1.14752 2.74587 1.14752C2.30999 1.14752 1.92398 1.30753 1.61575 1.61575Z" fill="#9E9E9E" stroke="#9D996C"/>
</svg>