<svg xmlns="http://www.w3.org/2000/svg" width="13" height="13" fill="none" viewBox="0 0 13 13">
  <path fill="#9E9E9E" stroke="#9D996C" d="M12.329 8.10717l-.0004.00036-4.20785 4.21637c-.13231.1239-.26942.1761-.4323.1761-.1725 0-.30218-.0545-.41872-.171L1.13466 6.18531l.00003-.00004-.00502-.00489c-.156278-.15217-.307118-.37804-.440314-.69972C.555536 5.15748.5 4.88875.5 4.66799V1.09835C.5.938365.552507.806745.679626.679626.806745.552507.938365.5 1.09835.5h3.56964c.22076 0 .48949.055536.81267.189356.32221.133414.55336.28543.71298.445054l.00025.00025 6.13001 6.12143c.1239.13233.1761.26945.1761.43236 0 .1725-.0545.30218-.171.41872zM1.61575 1.61575l.35356.35356-.35356-.35356c-.30822.30823-.46823.69424-.46823 1.13012 0 .43589.16001.8219.46823 1.13013.30823.30822.69424.46822 1.13012.46822.43589 0 .8219-.16 1.13013-.46822.30822-.30823.46822-.69424.46822-1.13013 0-.43588-.16-.82189-.46822-1.13012-.30823-.30822-.69424-.46823-1.13013-.46823-.43588 0-.82189.16001-1.13012.46823z"/>
</svg>
